<svg width="115" height="115" viewBox="0 0 115 115" fill="none" xmlns="http://www.w3.org/2000/svg">
<path d="M57.4933 14.373C40.1455 14.373 25.1734 24.6448 18.333 39.429C17.9276 40.3331 18.5055 41.3887 19.442 41.7166C20.6382 42.0371 21.3363 41.3098 21.7336 40.6218C24.2592 35.2716 27.957 30.5897 32.4861 26.8853C37.0384 35.8561 39.5293 46.5362 39.5293 57.5093C39.5293 68.4785 37.0298 79.1417 32.4791 88.1091C23.623 80.8653 17.9751 69.856 17.9751 57.506C17.9751 56.2934 18.0226 55.0974 18.1299 53.9129C18.2304 52.9304 17.3256 52.1163 16.3332 52.1164C15.3408 52.1164 14.6119 52.9238 14.519 53.9129C14.4205 55.1002 14.375 56.2968 14.375 57.5093C14.375 81.3013 33.7016 100.625 57.4974 100.625C74.7251 100.625 89.609 90.4968 96.5138 75.8775C96.9281 74.97 96.7128 73.9236 95.8543 73.4285C94.995 72.9327 93.7903 73.2145 93.3944 74.0988C90.8665 79.5622 87.1289 84.353 82.5225 88.1198C77.971 79.1522 75.4724 68.487 75.4724 57.5166C75.4724 46.546 77.9746 35.8689 82.5261 26.8994C91.382 34.1467 97.0299 45.163 97.0299 57.513C97.0299 58.6651 96.9756 59.7934 96.8792 60.9202C96.7678 61.9061 97.4795 62.7956 98.4653 62.9059C99.4514 63.0173 100.341 62.3056 100.451 61.32C100.563 60.0631 100.627 58.8019 100.627 57.5166C100.627 33.7244 81.301 14.4012 57.505 14.4012L57.4933 14.373ZM57.4933 17.9518C65.6857 17.9518 73.2919 20.4374 79.5985 24.6956C74.5782 34.3387 71.871 45.7602 71.871 57.4919C71.871 69.2237 74.5782 80.6287 79.5985 90.2706C73.2919 94.5262 65.6857 97.0073 57.4933 97.0073C49.3011 97.0073 41.6985 94.5228 35.3918 90.2668C40.4107 80.6259 43.1158 69.222 43.1158 57.4919C43.1158 45.7575 40.4204 34.3333 35.3988 24.6888C41.704 20.434 49.3045 17.9518 57.4933 17.9518ZM17.3293 45.0149C16.6357 45.112 16.034 45.6119 15.8414 46.3306C15.5847 47.289 16.1538 48.2737 17.1118 48.5306C18.0703 48.7873 19.0553 48.219 19.3121 47.2605C19.5688 46.3021 19.0003 45.3173 18.0417 45.0603C17.802 44.9924 17.5602 44.9829 17.3293 45.0128V45.0149ZM97.1626 66.404C96.469 66.5012 95.8672 66.9977 95.6746 67.7164C95.4178 68.6748 95.987 69.6595 96.945 69.9165C97.9036 70.1732 98.8884 69.6047 99.1453 68.6464C99.4021 67.6879 98.8336 66.703 97.8749 66.4461C97.6351 66.3782 97.3933 66.372 97.1626 66.4053V66.404Z" fill="#27293D"/>
<path d="M57.4933 17.9518C65.6857 17.9518 73.2919 20.4374 79.5985 24.6956C74.5782 34.3387 71.871 45.7602 71.871 57.4919C71.871 69.2237 74.5782 80.6287 79.5985 90.2706C73.2919 94.5262 65.6857 97.0073 57.4933 97.0073C49.3011 97.0073 41.6985 94.5228 35.3918 90.2668C40.4107 80.6259 43.1158 69.222 43.1158 57.4919C43.1158 45.7575 40.4204 34.3333 35.3988 24.6888C41.704 20.434 49.3045 17.9518 57.4933 17.9518Z" fill="#27293D"/>
</svg>
