<svg width="115" height="115" viewBox="0 0 115 115" fill="none" xmlns="http://www.w3.org/2000/svg">
<path d="M99.0909 27.1236H90.7482L87.11 19.5545C86.0855 17.4009 83.8691 16 81.4645 16H59.6773C57.2727 16 55.0564 17.4009 54.0318 19.5545L50.3727 27.1236H35.6945V24.6982C35.6945 20.7255 32.4745 17.5055 28.5018 17.5055C24.5291 17.5055 21.2882 20.7255 21.2882 24.6982V27.1236H15.4545C9.68364 27.1236 5 31.8073 5 37.5782V88.22C5 93.9909 9.68364 98.6746 15.4545 98.6746H99.0909C104.862 98.6746 109.545 93.9909 109.545 88.22V37.5782C109.545 31.8073 104.862 27.1236 99.0909 27.1236ZM25.47 24.6982C25.47 23.0464 26.8291 21.6873 28.5018 21.6873C30.1536 21.6873 31.5127 23.0464 31.5127 24.6982V27.1236H25.47V24.6982ZM105.364 88.22C105.364 91.67 102.541 94.4927 99.0909 94.4927H15.4545C12.0045 94.4927 9.18182 91.67 9.18182 88.22V37.5782C9.18182 34.1282 12.0045 31.3055 15.4545 31.3055H51.69C52.4845 31.3055 53.2164 30.8455 53.5718 30.1136L57.7955 21.3527C58.13 20.6418 58.8827 20.1818 59.6773 20.1818H81.4645C82.2591 20.1818 82.9909 20.6418 83.3464 21.3527L87.5491 30.1136C87.9045 30.8455 88.6364 31.3055 89.4309 31.3055H99.0909C102.541 31.3055 105.364 34.1282 105.364 37.5782V88.22Z" fill="#1FBA73"/>
<path d="M105.364 88.22C105.364 91.67 102.541 94.4927 99.0909 94.4927H15.4545C12.0045 94.4927 9.18182 91.67 9.18182 88.22V37.5782C9.18182 34.1282 12.0045 31.3055 15.4545 31.3055H51.69C52.4845 31.3055 53.2164 30.8455 53.5718 30.1136L57.7955 21.3527C58.13 20.6418 58.8827 20.1818 59.6773 20.1818H81.4645C82.2591 20.1818 82.9909 20.6418 83.3464 21.3527L87.5491 30.1136C87.9045 30.8455 88.6364 31.3055 89.4309 31.3055H99.0909C102.541 31.3055 105.364 34.1282 105.364 37.5782V88.22Z" fill="#1FBA73"/>
<path d="M70.9027 39C57.1655 39 46 50.1655 46 63.9027C46 77.64 57.1655 88.8055 70.9027 88.8055C84.64 88.8055 95.8055 77.64 95.8055 63.9027C95.8055 50.1655 84.6191 39 70.9027 39ZM70.9027 84.6236C59.4864 84.6236 50.1818 75.34 50.1818 63.9027C50.1818 52.4864 59.4655 43.1818 70.9027 43.1818C82.3191 43.1818 91.6236 52.4655 91.6236 63.9027C91.6027 75.3191 82.3191 84.6236 70.9027 84.6236Z" fill="#27293D"/>
<path d="M70.9027 84.6236C59.4864 84.6236 50.1818 75.34 50.1818 63.9027C50.1818 52.4864 59.4655 43.1818 70.9027 43.1818C82.3191 43.1818 91.6236 52.4655 91.6236 63.9027C91.6027 75.3191 82.3191 84.6236 70.9027 84.6236Z" fill="#27293D"/>
<path d="M81.0645 61.3891C76.5482 61.3891 72.8891 57.73 72.8891 53.2137C72.8891 52.0637 71.9482 51.1228 70.7982 51.1228C63.9818 51.1228 58.4409 56.6637 58.4409 63.48C58.4409 70.2964 63.9818 75.8373 70.7982 75.8373C77.6145 75.8373 83.1554 70.2964 83.1554 63.48C83.1554 62.33 82.2145 61.3891 81.0645 61.3891ZM70.7982 71.6555C66.2818 71.6555 62.6227 67.9964 62.6227 63.48C62.6227 59.6119 65.32 56.3709 68.9163 55.5137C69.8573 60.49 73.7882 64.4 78.7436 65.341C77.9073 68.9582 74.6664 71.6555 70.7982 71.6555ZM23.7527 38.2637C19.5918 38.2637 16.2045 41.6509 16.2045 45.8328C16.2045 49.9937 19.5918 53.381 23.7527 53.381C27.9345 53.381 31.3218 49.9937 31.3218 45.8328C31.3218 41.6509 27.9345 38.2637 23.7527 38.2637ZM23.7527 49.1991C21.8918 49.1991 20.3863 47.6937 20.3863 45.8328C20.3863 43.9719 21.8918 42.4455 23.7527 42.4455C25.6136 42.4455 27.14 43.9719 27.14 45.8328C27.14 47.6937 25.6345 49.1991 23.7527 49.1991Z" fill="#27293D"/>
<path d="M70.7982 71.6555C66.2818 71.6555 62.6227 67.9964 62.6227 63.48C62.6227 59.6119 65.32 56.3709 68.9163 55.5137C69.8573 60.49 73.7882 64.4 78.7436 65.341C77.9073 68.9582 74.6664 71.6555 70.7982 71.6555Z" fill="#27293D"/>
<path d="M23.7527 49.1991C21.8918 49.1991 20.3863 47.6937 20.3863 45.8328C20.3863 43.9719 21.8918 42.4455 23.7527 42.4455C25.6136 42.4455 27.14 43.9719 27.14 45.8328C27.14 47.6937 25.6345 49.1991 23.7527 49.1991Z" fill="#27293D"/>
</svg>
