<svg width="115" height="115" viewBox="0 0 115 115" fill="none" xmlns="http://www.w3.org/2000/svg">
<path d="M71.875 34.9309V14.3747C71.875 11.7393 69.7188 9.58301 67.0834 9.58301H47.9167C45.2813 9.58301 43.125 11.7393 43.125 14.3747V34.9309C43.125 35.5538 43.3646 36.1768 43.8438 36.608L55.823 48.5872C56.7813 49.5455 58.2667 49.5455 59.225 48.5872L71.2042 36.608C71.6355 36.1768 71.875 35.6018 71.875 34.9309V34.9309ZM34.9313 43.1247H14.375C11.7396 43.1247 9.58337 45.2809 9.58337 47.9163V67.083C9.58337 69.7184 11.7396 71.8747 14.375 71.8747H34.9313C35.5542 71.8747 36.1771 71.6351 36.6084 71.1559L48.5875 59.1768C49.5459 58.2184 49.5459 56.733 48.5875 55.7747L36.6084 43.7955C36.1771 43.3643 35.6021 43.1247 34.9313 43.1247ZM43.125 80.0684V100.625C43.125 103.26 45.2813 105.416 47.9167 105.416H67.0834C69.7188 105.416 71.875 103.26 71.875 100.625V80.0684C71.875 79.4455 71.6355 78.8226 71.1563 78.3913L59.1771 66.4122C58.2188 65.4538 56.7334 65.4538 55.775 66.4122L43.7959 78.3913C43.3646 78.8226 43.125 79.3976 43.125 80.0684ZM78.3438 43.8434L66.3646 55.8226C65.4063 56.7809 65.4063 58.2663 66.3646 59.2247L78.3438 71.2038C78.775 71.6351 79.398 71.9226 80.0209 71.9226H100.625C103.26 71.9226 105.417 69.7663 105.417 67.1309V47.9643C105.417 45.3288 103.26 43.1726 100.625 43.1726H80.0688C79.398 43.1247 78.823 43.3643 78.3438 43.8434V43.8434Z" fill="#1FBA73"/>
</svg>
