<svg width="115" height="115" viewBox="0 0 115 115" fill="none" xmlns="http://www.w3.org/2000/svg">
<path d="M71.8749 34.9309V14.3747C71.8749 11.7393 69.7187 9.58301 67.0833 9.58301H47.9166C45.2812 9.58301 43.1249 11.7393 43.1249 14.3747V34.9309C43.1249 35.5538 43.3645 36.1768 43.8437 36.608L55.8228 48.5872C56.7812 49.5455 58.2666 49.5455 59.2249 48.5872L71.2041 36.608C71.6353 36.1768 71.8749 35.6018 71.8749 34.9309V34.9309ZM34.9312 43.1247H14.3749C11.7395 43.1247 9.58325 45.2809 9.58325 47.9163V67.083C9.58325 69.7184 11.7395 71.8747 14.3749 71.8747H34.9312C35.5541 71.8747 36.177 71.6351 36.6083 71.1559L48.5874 59.1768C49.5458 58.2184 49.5458 56.733 48.5874 55.7747L36.6083 43.7955C36.177 43.3643 35.602 43.1247 34.9312 43.1247ZM43.1249 80.0684V100.625C43.1249 103.26 45.2812 105.416 47.9166 105.416H67.0833C69.7187 105.416 71.8749 103.26 71.8749 100.625V80.0684C71.8749 79.4455 71.6353 78.8226 71.1562 78.3913L59.177 66.4122C58.2187 65.4538 56.7333 65.4538 55.7749 66.4122L43.7958 78.3913C43.3645 78.8226 43.1249 79.3976 43.1249 80.0684ZM78.3437 43.8434L66.3645 55.8226C65.4062 56.7809 65.4062 58.2663 66.3645 59.2247L78.3437 71.2038C78.7749 71.6351 79.3978 71.9226 80.0208 71.9226H100.625C103.26 71.9226 105.417 69.7663 105.417 67.1309V47.9643C105.417 45.3288 103.26 43.1726 100.625 43.1726H80.0687C79.3978 43.1247 78.8228 43.3643 78.3437 43.8434V43.8434Z" fill="#27293D"/>
</svg>
