<svg width="115" height="115" viewBox="0 0 115 115" fill="none" xmlns="http://www.w3.org/2000/svg">
<path d="M88.5695 52.219C76.575 64.5056 55.4391 58.766 51.0967 42.3313C47.0637 28.3887 58.1681 13.8228 72.6799 14.0321C92.4553 13.9976 102.526 38.235 88.5695 52.219Z" fill="#1FBA73"/>
<path d="M16.0321 55.0917C4.77473 45.6077 11.5195 27.0846 26.2659 27.0708C35.0324 27.0708 42.1635 34.1962 42.1635 42.9558C42.2785 56.3349 26.0923 63.7926 16.0321 55.0917Z" fill="#1FBA73"/>
<path d="M30.2886 79.5258V87.133C30.2507 89.4008 26.8777 89.3974 26.8398 87.133V79.5258C26.8398 78.5736 27.6114 77.8008 28.5648 77.8008C29.5181 77.8008 30.2886 78.5747 30.2886 79.5258Z" fill="#1FBA73"/>
<path d="M40.2649 79.5258V87.133C40.2269 89.4008 36.854 89.3974 36.816 87.133V79.5258C36.816 78.5736 37.5877 77.8008 38.541 77.8008C39.4932 77.8019 40.2649 78.5747 40.2649 79.5258Z" fill="#1FBA73"/>
<path fill-rule="evenodd" clip-rule="evenodd" d="M107.527 65.2945C107.164 64.9679 106.677 64.8115 106.191 64.8621L89.417 66.6573V56.1152C107.613 40.6719 96.5723 10.6097 72.6799 10.604C56.7087 10.4315 44.1703 25.5885 47.2902 41.2308H45.5238C44.9569 34.7942 40.9848 28.8407 35.2543 25.8518C13.8988 15.3765 -3.94457 43.7757 14.7636 58.49V102.673C14.7636 103.625 15.5353 104.398 16.4886 104.398H87.6955C88.6477 104.398 89.4205 103.625 89.4205 102.673V87.1043L106.194 88.9006C107.174 89.0259 108.129 88.1841 108.102 87.1859V66.5756C108.1 66.0869 107.892 65.6211 107.527 65.2945ZM26.2659 27.0708C11.5195 27.0846 4.77473 45.6077 16.0321 55.0917C26.0923 63.7926 42.2785 56.3349 42.1635 42.9558C42.1635 34.1962 35.0324 27.0708 26.2659 27.0708ZM18.2113 100.948H85.9693L85.9705 58.5993C72.1624 67.2496 52.9942 59.8964 48.1918 44.6796H45.5123C44.636 54.5328 36.3445 62.2873 26.2659 62.2873C23.3898 62.2873 20.6677 61.6387 18.2113 60.5071V100.948ZM51.0967 42.3313C55.4391 58.766 76.575 64.5056 88.5695 52.219C102.526 38.235 92.4553 13.9976 72.6799 14.0321C58.1681 13.8228 47.0637 28.3887 51.0967 42.3313ZM89.4584 83.6405L104.651 85.2677V68.495L89.4584 70.1211V83.6405Z" fill="#27293D"/>
<path fill-rule="evenodd" clip-rule="evenodd" d="M85.9693 100.948H18.2113V60.5071C20.6677 61.6387 23.3898 62.2873 26.2659 62.2873C36.3445 62.2873 44.636 54.5328 45.5123 44.6796H48.1918C52.9942 59.8964 72.1624 67.2496 85.9705 58.5993L85.9693 100.948ZM30.2886 87.133V79.5258C30.2886 78.5747 29.5181 77.8008 28.5648 77.8008C27.6114 77.8008 26.8398 78.5736 26.8398 79.5258V87.133C26.8777 89.3974 30.2507 89.4008 30.2886 87.133ZM40.2649 87.133V79.5258C40.2649 78.5747 39.4932 77.8019 38.541 77.8008C37.5877 77.8008 36.816 78.5736 36.816 79.5258V87.133C36.854 89.3974 40.2269 89.4008 40.2649 87.133Z" fill="#27293D"/>
<path d="M104.651 85.2677L89.4584 83.6405V70.1211L104.651 68.495V85.2677Z" fill="#27293D"/>
</svg>
