<svg width="115" height="115" viewBox="0 0 115 115" fill="none" xmlns="http://www.w3.org/2000/svg">
<path fill-rule="evenodd" clip-rule="evenodd" d="M85.9694 100.948H18.2114V60.5071C20.6678 61.6387 23.3899 62.2873 26.266 62.2873C36.3446 62.2873 44.6361 54.5328 45.5124 44.6796H48.1919C52.9943 59.8964 72.1625 67.2496 85.9706 58.5993C85.9694 58.5993 85.9694 100.948 85.9694 100.948ZM30.2887 87.133V79.5258C30.2887 78.5747 29.5182 77.8008 28.5649 77.8008C27.6115 77.8008 26.8399 78.5736 26.8399 79.5258V87.133C26.8778 89.3974 30.2508 89.4008 30.2887 87.133ZM40.265 87.133V79.5258C40.265 78.5747 39.4933 77.8019 38.5411 77.8008C37.5878 77.8008 36.8161 78.5736 36.8161 79.5258V87.133C36.8541 89.3974 40.227 89.4008 40.265 87.133Z" fill="#1FBA73"/>
<path fill-rule="evenodd" clip-rule="evenodd" d="M107.527 65.2945C107.164 64.9679 106.677 64.8115 106.191 64.8621L89.4171 66.6573V56.1152C107.614 40.6719 96.5724 10.6097 72.68 10.604C56.7088 10.4315 44.1704 25.5885 47.2903 41.2308H45.5239C44.957 34.7942 40.9849 28.8407 35.2544 25.8518C13.8989 15.3765 -3.94445 43.7757 14.7637 58.49V102.673C14.7637 103.625 15.5354 104.398 16.4887 104.398H87.6956C88.6478 104.398 89.4206 103.625 89.4206 102.673V87.1043L106.194 88.9006C107.174 89.0259 108.129 88.1841 108.102 87.1859V66.5756C108.1 66.0869 107.892 65.6211 107.527 65.2945ZM16.0322 55.0917C4.77485 45.6077 11.5196 27.0846 26.266 27.0708C35.0325 27.0708 42.1636 34.1962 42.1636 42.9558C42.2786 56.3349 26.0924 63.7926 16.0322 55.0917ZM85.9694 100.948H18.2114V60.5071C20.6678 61.6387 23.3899 62.2873 26.266 62.2873C36.3446 62.2873 44.6361 54.5328 45.5124 44.6796H48.1919C52.9943 59.8964 72.1625 67.2496 85.9706 58.5993C85.9694 58.5993 85.9694 100.948 85.9694 100.948ZM88.5696 52.219C76.5751 64.5056 55.4392 58.766 51.0968 42.3313C47.0638 28.3887 58.1682 13.8228 72.68 14.0321C92.4554 13.9976 102.526 38.235 88.5696 52.219ZM104.651 85.2677L89.4585 83.6405V70.1211L104.651 68.495V85.2677Z" fill="#1FBA73"/>
<path d="M104.651 85.2677L89.4585 83.6405V70.1211L104.651 68.495V85.2677Z" fill="#1FBA73"/>
</svg>
