<svg width="100" height="100" viewBox="0 0 100 100" fill="none" xmlns="http://www.w3.org/2000/svg">
<g clip-path="url(#clip0_540_81)">
<path d="M49.2874 48.1703C55.9052 48.1703 61.6356 45.7968 66.3177 41.1139C70.9999 36.4317 73.3734 30.7029 73.3734 24.0844C73.3734 17.4682 70.9999 11.7385 66.317 7.05487C61.6341 2.3735 55.9044 0 49.2874 0C42.6689 0 36.94 2.3735 32.2578 7.05564C27.5757 11.7378 25.2014 17.4674 25.2014 24.0844C25.2014 30.7029 27.5757 36.4325 32.2586 41.1146C36.9415 45.796 42.6712 48.1703 49.2874 48.1703V48.1703Z" fill="#1FBA73"/>
<path d="M91.4314 76.8957C91.2964 74.9472 91.0233 72.8216 90.6212 70.5771C90.2153 68.3157 89.6927 66.178 89.0671 64.2241C88.4209 62.2046 87.542 60.2103 86.4555 58.2992C85.3279 56.3155 84.0034 54.5882 82.5172 53.1669C80.9631 51.6799 79.0604 50.4844 76.86 49.6124C74.6674 48.7449 72.2374 48.3055 69.6381 48.3055C68.6172 48.3055 67.63 48.7243 65.7234 49.9656C64.55 50.7308 63.1775 51.6158 61.6455 52.5947C60.3355 53.4293 58.5609 54.2113 56.369 54.9193C54.2305 55.6113 52.0592 55.9623 49.9161 55.9623C47.773 55.9623 45.6024 55.6113 43.4616 54.9193C41.272 54.2121 39.4974 53.4301 38.1889 52.5954C36.6714 51.6257 35.2982 50.7407 34.1072 49.9648C32.2029 48.7235 31.2149 48.3047 30.1941 48.3047C27.594 48.3047 25.1648 48.7449 22.9729 49.6131C20.7741 50.4836 18.8705 51.6792 17.3149 53.1676C15.8295 54.5898 14.5042 56.3163 13.3781 58.2992C12.2925 60.2103 11.4136 62.2039 10.7666 64.2249C10.1418 66.1788 9.61914 68.3157 9.21326 70.5771C8.81119 72.8186 8.53806 74.9449 8.40302 76.898C8.27026 78.8115 8.20312 80.7974 8.20312 82.8031C8.20312 88.0232 9.86252 92.2491 13.1348 95.3657C16.3666 98.4411 20.6429 100.001 25.843 100.001H73.9937C79.1939 100.001 83.4686 98.4418 86.7012 95.3657C89.9742 92.2513 91.6336 88.0247 91.6336 82.8024C91.6328 80.7875 91.5649 78.8 91.4314 76.8957V76.8957Z" fill="#1FBA73"/>
</g>
<defs>
<clipPath id="clip0_540_81">
<rect width="100" height="100" fill="white"/>
</clipPath>
</defs>
</svg>
