<svg width="62" height="72" viewBox="0 0 62 72" fill="none" xmlns="http://www.w3.org/2000/svg">
<path d="M5.80495 51.6173C2.6033 51.6191 0.00173468 49.014 0.00115655 45.813L3.85353e-07 28.042C-0.00115586 24.8438 2.59983 22.2393 5.79744 22.2388C7.35202 22.2376 8.80774 22.8406 9.90502 23.9367C11.0023 25.0328 11.6059 26.4909 11.607 28.0408L11.6053 45.8124C11.6093 47.3612 11.0075 48.8181 9.9108 49.9136C8.81699 51.012 7.35722 51.6168 5.80495 51.6173ZM5.80033 23.798C3.45719 23.7968 1.55805 25.7006 1.55747 28.042L1.56036 45.8112C1.56094 48.1607 3.46355 50.057 5.80438 50.0593C8.14983 50.0564 10.0495 48.1602 10.0472 45.8118V28.0397C10.0461 25.6988 8.14463 23.7968 5.80033 23.798Z" fill="white"/>
<path d="M51.3207 24.6778L49.7609 24.6773L11.5359 24.6825L9.97552 24.6831L9.97437 23.1227C9.9709 16.7171 13.4605 10.7595 19.1764 7.23986L16.9541 3.18316C16.6824 2.70794 16.6141 2.10611 16.7725 1.55574C16.9333 1.00536 17.3131 0.531878 17.8213 0.261315C18.1155 0.0948154 18.4751 0.00231539 18.8382 0.00289351C19.6256 0.00289351 20.3465 0.430128 20.7269 1.12041L23.0527 5.35749C25.4594 4.47469 28.0003 4.02433 30.6256 4.02491C33.2884 4.02375 35.842 4.47411 38.2591 5.36096L40.5815 1.11694C40.9555 0.428394 41.6816 -0.000575234 42.4679 2.89082e-06C42.8217 -0.000575234 43.1749 0.0855655 43.486 0.253222C44.008 0.539394 44.3722 0.996691 44.5324 1.55111C44.6919 2.10207 44.6278 2.68366 44.3485 3.18836L42.1274 7.24275C47.834 10.7699 51.3196 16.7228 51.319 23.1175L51.3207 24.6778ZM40.0207 7.84054L42.9824 2.43217C43.1403 2.14947 43.0373 1.78757 42.7517 1.63089C42.4621 1.47422 42.1048 1.58117 41.9516 1.86503L38.9592 7.32832C36.4421 6.21022 33.6237 5.5818 30.6447 5.58469C27.6719 5.5818 24.8588 6.20791 22.3491 7.32196L19.3539 1.87082C19.1995 1.58349 18.8388 1.47827 18.5566 1.63667C18.2693 1.79046 18.1635 2.15178 18.3237 2.43391L21.2865 7.83822C15.4648 10.841 11.5313 16.5587 11.5347 23.1233L49.7592 23.1186C49.7609 16.5563 45.8343 10.8503 40.0207 7.84054ZM21.9508 16.1985C21.0715 16.1968 20.3534 15.481 20.3534 14.5965C20.3534 13.716 21.0703 12.9928 21.9525 12.9928C22.8388 12.9922 23.5557 13.716 23.5568 14.5965C23.5574 15.4799 22.8388 16.1979 21.9508 16.1985ZM39.3564 16.195C38.473 16.1962 37.7521 15.481 37.7539 14.593C37.7539 13.7137 38.4719 12.9905 39.357 12.987C40.2363 12.9899 40.9573 13.7143 40.9567 14.5936C40.9567 15.4787 40.2392 16.1956 39.3564 16.195ZM23.5528 71.8714C20.354 71.8708 17.7507 69.2692 17.7502 66.0681L17.749 58.2247L16.2239 58.2264C14.5953 58.227 13.0668 57.594 11.918 56.4447C10.7676 55.2965 10.1334 53.7662 10.1357 52.1365L10.1299 24.6021V23.0406H11.6902L49.6285 23.0348L51.1895 23.0337V24.594L51.1935 52.1319C51.1941 55.4902 48.4619 58.223 45.1047 58.2224L43.5704 58.2236L43.5721 66.0641C43.5721 69.2634 40.9694 71.8679 37.7718 71.8679C36.2218 71.8714 34.7673 71.269 33.6682 70.1699C32.5692 69.0738 31.9639 67.6169 31.9645 66.0676V58.2236H29.3566V66.0658C29.3554 69.2657 26.7533 71.8719 23.5528 71.8714Z" fill="white"/>
<path d="M11.6977 52.1359C11.6954 54.6433 13.7194 56.6673 16.225 56.6667H19.3082L19.3116 66.0693C19.3111 68.4107 21.2131 70.3133 23.5522 70.3139C25.8971 70.3139 27.7968 68.409 27.7945 66.0659L27.795 56.6661L33.5237 56.6644L33.5231 66.0664C33.5254 68.4084 35.4298 70.3134 37.7683 70.3087C40.1132 70.3105 42.014 68.4055 42.0134 66.063L42.0106 56.6632L45.1053 56.6627C47.6022 56.6632 49.6331 54.6346 49.6331 52.1319L49.6279 24.5929L11.6908 24.5998L11.6977 52.1359ZM55.5144 51.6098C52.3139 51.6104 49.7106 49.0094 49.7112 45.8078L49.7066 28.0374C49.7077 24.8363 52.307 22.2324 55.5057 22.2324C58.7085 22.2318 61.3136 24.8351 61.313 28.0356L61.3147 45.8049C61.3153 49.0042 58.7143 51.6104 55.5144 51.6098ZM55.5086 23.7928C53.1655 23.7905 51.2669 25.6931 51.2669 28.0374L51.2687 45.8072C51.2698 48.1538 53.1684 50.0524 55.5132 50.0506C57.857 50.0501 59.7538 48.1538 59.7555 45.8055L59.7509 28.0362C59.7503 25.6913 57.8529 23.7916 55.5086 23.7928Z" fill="white"/>
<path d="M5.80023 23.7979C3.45709 23.7967 1.55795 25.7005 1.55737 28.0419L1.56026 45.8112C1.56084 48.1607 3.46114 50.0569 5.80486 50.0563C8.14973 50.0563 10.0495 48.1601 10.0471 45.8117V28.0396C10.046 25.6988 8.14453 23.7967 5.80023 23.7979ZM40.0206 7.84048L42.9823 2.43212C43.1402 2.14942 43.0367 1.78983 42.7505 1.62969C42.4614 1.47648 42.1047 1.58055 41.9515 1.86498L38.9597 7.33C36.4426 6.20959 33.6254 5.58175 30.6446 5.58464C27.6719 5.58175 24.8558 6.20786 22.3491 7.3219L19.3538 1.87076C19.1983 1.58344 18.8398 1.47937 18.5571 1.63605C18.2692 1.79156 18.1634 2.15173 18.3236 2.43386L21.2865 7.83875C15.4647 10.841 11.5312 16.5586 11.5347 23.1232L49.7591 23.1186C49.7609 16.5563 45.8342 10.8502 40.0206 7.84048ZM21.9507 16.1984C21.0714 16.1967 20.3534 15.481 20.3534 14.5965C20.3534 13.716 21.0691 12.9922 21.9525 12.9927C22.8387 12.9922 23.5556 13.716 23.5568 14.5965C23.5573 15.4798 22.8387 16.1979 21.9507 16.1984ZM39.3563 16.195C38.473 16.1961 37.7538 15.4798 37.7538 14.593C37.7572 13.7142 38.4718 12.9904 39.3569 12.987C40.2362 12.9898 40.9572 13.7142 40.9566 14.5936C40.9577 15.4787 40.2391 16.1955 39.3563 16.195ZM11.6907 24.5997L11.6971 52.1387C11.6954 54.6437 13.7217 56.666 16.225 56.666L19.3081 56.6672L19.3116 66.0698C19.311 68.4112 21.2142 70.3144 23.5521 70.3144C25.897 70.3144 27.7967 68.4095 27.7973 66.0669L27.795 56.6666L33.5236 56.6649L33.5259 66.0669C33.5259 68.4066 35.4297 70.3138 37.7682 70.3092C40.1131 70.3109 42.014 68.406 42.0134 66.0635L42.0105 56.6637L45.1046 56.6614C47.6021 56.6626 49.6337 54.638 49.6348 52.1324L49.6296 24.5934L11.6907 24.5997ZM59.7526 28.0355C59.752 25.6912 57.8529 23.7915 55.5086 23.7927C53.1654 23.7904 51.2669 25.693 51.2669 28.0373L51.2703 45.8077C51.2698 48.1537 53.1683 50.05 55.5132 50.0505C57.8569 50.05 59.7549 48.1537 59.7555 45.8054L59.7526 28.0355Z" fill="#A4C439"/>
</svg>
