<svg width="56" height="65" viewBox="0 0 56 65" fill="none" xmlns="http://www.w3.org/2000/svg">
<path d="M10.0017 25.2175C9.81489 15.2347 16.7328 6.5261 26.4854 4.4673C36.238 2.40851 46.0755 7.57985 49.9258 16.7893C53.776 25.9987 50.5535 36.6498 42.2472 42.168L42.2832 30.0884L22.0581 18.7866L10.0017 25.2175Z" fill="#A29BFE"/>
<path d="M6.62689 26.9266C5.46958 13.5702 15.3397 1.80278 28.6723 0.643407C42.005 -0.515965 53.7515 9.37174 54.9088 22.7281C55.7513 32.4522 50.6982 41.7361 42.0822 46.2937" stroke="white" stroke-width="0.999702" stroke-linecap="round" stroke-linejoin="round" stroke-dasharray="1 2"/>
<path d="M1.00024 30.5388L21.3961 41.8105L41.7921 30.5388V41.8105V53.0819L21.3961 64.3536L1.00024 53.0819V41.8105V30.5388Z" stroke="white" stroke-width="0.999702" stroke-linecap="round" stroke-linejoin="round"/>
<path d="M21.3962 41.8104V64.3535M1 30.5387L21.3962 41.8104L41.7924 30.5387L21.3962 19.2672L1 30.5387Z" stroke="white" stroke-width="0.999702" stroke-linecap="round" stroke-linejoin="round"/>
</svg>
