<svg width="173" height="50" viewBox="0 0 173 50" fill="none" xmlns="http://www.w3.org/2000/svg">
<path d="M1.12585 38.7942V19.6852H25.1647V18.5674H1.12585V1.1345H26.6846V0.0170898H0V39.9116H26.9096V38.7942H1.12619H1.12585ZM48.5843 11.1919L38.6199 24.2108L28.8802 11.1922H27.4164L37.9441 25.0492L26.4028 39.9113H27.754L38.6192 25.8866L49.5408 39.9113H50.9482L39.3511 25.0485L49.9348 11.1916H48.5839L48.5843 11.1919ZM54.3264 49.7457V31.866H54.4389C55.1147 34.4734 56.447 36.5688 58.4362 38.152C60.4253 39.7349 62.9585 40.5267 66.036 40.5267C68.0252 40.5267 69.7893 40.1262 71.328 39.3254C72.8668 38.5246 74.1521 37.435 75.1844 36.0567C76.2163 34.6784 77.0046 33.0767 77.5489 31.2513C78.0929 29.4263 78.3653 27.5077 78.3653 25.4966C78.3653 23.3359 78.0835 21.3428 77.5206 19.5178C76.9576 17.6925 76.1413 16.1092 75.0719 14.7685C74.0021 13.4274 72.7073 12.3841 71.1871 11.6396C69.6673 10.8944 67.9501 10.5218 66.036 10.5218C64.5723 10.5218 63.2119 10.7361 61.9546 11.1644C60.6973 11.593 59.5809 12.198 58.6051 12.9804C57.6236 13.7688 56.7692 14.7014 56.0716 15.7461C55.3586 16.8078 54.8143 17.9718 54.4389 19.2385H54.3264V11.1919H53.2005V49.7457H54.3264ZM66.036 39.4646C62.5084 39.4646 59.6745 38.2633 57.5353 35.8608C55.3962 33.4583 54.3264 30.0031 54.3264 25.4959C54.3264 23.6333 54.5893 21.864 55.1147 20.1879C55.6401 18.5117 56.4 17.0402 57.3944 15.7739C58.3892 14.5072 59.6184 13.5015 61.0818 12.7567C62.5456 12.0115 64.1972 11.6389 66.036 11.6389C67.9126 11.6389 69.5548 12.0115 70.9621 12.7567C72.3694 13.5015 73.5331 14.5166 74.4525 15.8017C75.3719 17.0868 76.0663 18.5584 76.5356 20.2157C77.0046 21.8734 77.2391 23.6333 77.2391 25.4959C77.2391 27.1724 77.0235 28.8394 76.5917 30.4968C76.1602 32.1544 75.4939 33.6444 74.5931 34.9671C73.6926 36.2891 72.5387 37.3693 71.131 38.2077C69.7234 39.0457 68.0252 39.4646 66.036 39.4646ZM84.5578 39.9116V23.6521C84.5578 22.0877 84.7828 20.5601 85.2336 19.0705C85.6837 17.5805 86.378 16.2672 87.3163 15.1313C88.2547 13.9951 89.4461 13.1011 90.8912 12.4491C92.336 11.7972 94.0532 11.5272 96.0424 11.6389V10.5215C94.3158 10.4846 92.8054 10.6704 91.5106 11.0802C90.2154 11.49 89.0991 12.0487 88.1607 12.7567C87.2224 13.4643 86.472 14.2929 85.909 15.243C85.3465 16.1916 84.9291 17.2178 84.6703 18.2881H84.5578V11.1919H83.432V39.9119H84.5578V39.9116ZM97.4497 25.7753H121.657C121.733 23.801 121.536 21.9015 121.066 20.0762C120.597 18.2508 119.846 16.6304 118.815 15.2152C117.782 13.7996 116.45 12.6634 114.817 11.8066C113.185 10.9498 111.242 10.5215 108.991 10.5215C107.377 10.5215 105.8 10.8569 104.262 11.5276C102.723 12.198 101.372 13.1755 100.208 14.4606C99.0449 15.7457 98.1065 17.3196 97.3936 19.1825C96.6806 21.0447 96.3238 23.1679 96.3238 25.5519C96.3238 27.6751 96.5678 29.6587 97.0557 31.5025C97.5436 33.3463 98.2941 34.9483 99.3074 36.3079C100.321 37.6674 101.625 38.7198 103.22 39.4646C104.815 40.2097 106.739 40.5636 108.991 40.5263C112.293 40.5263 115.071 39.6041 117.322 37.7606C119.574 35.9165 120.907 33.3185 121.32 29.9659H120.194C119.706 33.1324 118.458 35.507 116.45 37.0899C114.442 38.6731 111.918 39.4646 108.878 39.4646C106.814 39.4646 105.068 39.1108 103.642 38.4032C102.216 37.6956 101.053 36.7267 100.152 35.4976C99.2513 34.2682 98.585 32.8248 98.1535 31.1672C97.7217 29.5098 97.4872 27.7123 97.4497 25.7753ZM120.531 24.6579H97.45C97.5622 22.6464 97.9376 20.8398 98.5755 19.2381C99.2138 17.6361 100.049 16.2672 101.081 15.1313C102.113 13.9951 103.314 13.1293 104.684 12.533C106.054 11.9371 107.527 11.6389 109.103 11.6389C110.98 11.6389 112.631 11.9837 114.057 12.6728C115.483 13.362 116.675 14.3027 117.632 15.4945C118.589 16.6864 119.312 18.0741 119.799 19.657C120.287 21.2402 120.531 22.9073 120.531 24.6579ZM145.021 19.6852H146.146C146.146 16.4815 145.208 14.1534 143.332 12.7007C141.455 11.2479 138.903 10.5215 135.675 10.5215C133.874 10.5215 132.354 10.7452 131.115 11.1922C129.877 11.6389 128.863 12.2164 128.075 12.924C127.287 13.6316 126.724 14.414 126.386 15.2709C126.048 16.1277 125.879 16.9473 125.879 17.7294C125.879 19.2938 126.161 20.5417 126.724 21.473C127.287 22.4042 128.169 23.1306 129.37 23.6521C130.196 24.0244 131.134 24.3597 132.185 24.6582C133.236 24.956 134.455 25.2726 135.844 25.6076C137.083 25.9061 138.302 26.2039 139.504 26.5017C140.704 26.7998 141.765 27.2002 142.684 27.7029C143.604 28.2059 144.354 28.8485 144.936 29.6309C145.518 30.4129 145.809 31.4375 145.809 32.7038C145.809 33.9332 145.518 34.9762 144.936 35.8327C144.359 36.685 143.6 37.4006 142.712 37.9283C141.812 38.4682 140.807 38.8593 139.701 39.1014C138.593 39.3435 137.514 39.4646 136.464 39.4646C133.048 39.4646 130.43 38.7104 128.61 37.2019C126.79 35.6931 125.88 33.3185 125.88 30.0776H124.754C124.754 33.6911 125.739 36.3357 127.709 38.0121C129.68 39.6883 132.598 40.5263 136.464 40.5263C137.702 40.5263 138.95 40.3865 140.207 40.1071C141.464 39.8278 142.591 39.3717 143.585 38.7382C144.571 38.1137 145.399 37.2727 146.006 36.28C146.625 35.274 146.935 34.0449 146.935 32.5921C146.935 31.2138 146.662 30.0964 146.118 29.2395C145.574 28.383 144.861 27.6751 143.979 27.1164C143.097 26.5577 142.103 26.12 140.995 25.8034C139.882 25.485 138.765 25.1776 137.645 24.8812C136.268 24.5224 134.888 24.1686 133.508 23.8198C132.326 23.5217 131.228 23.1679 130.215 22.7581C129.239 22.3482 128.46 21.7617 127.878 20.9981C127.296 20.2345 127.006 19.1449 127.006 17.7294C127.006 17.4688 127.081 17.003 127.231 16.3326C127.381 15.6619 127.738 14.9821 128.3 14.2929C128.863 13.6041 129.726 12.9894 130.89 12.4491C132.053 11.9092 133.649 11.6389 135.675 11.6389C137.064 11.6389 138.33 11.7882 139.475 12.086C140.62 12.3841 141.605 12.859 142.431 13.5109C143.257 14.1628 143.894 14.9915 144.345 15.9972C144.795 17.0033 145.021 18.2324 145.021 19.6852ZM171.086 19.6852H172.212C172.212 16.4815 171.274 14.1534 169.397 12.7007C167.52 11.2479 164.968 10.5215 161.74 10.5215C159.939 10.5215 158.419 10.7452 157.181 11.1922C155.942 11.6389 154.929 12.2164 154.141 12.924C153.352 13.6316 152.789 14.414 152.452 15.2709C152.114 16.1277 151.945 16.9473 151.945 17.7294C151.945 19.2938 152.226 20.5417 152.79 21.473C153.352 22.4042 154.235 23.1306 155.435 23.6521C156.261 24.0244 157.199 24.3597 158.25 24.6582C159.301 24.956 160.521 25.2726 161.909 25.6076C163.148 25.9061 164.368 26.2039 165.569 26.5017C166.77 26.7998 167.83 27.2002 168.75 27.7029C169.669 28.2059 170.42 28.8485 171.001 29.6309C171.583 30.4129 171.874 31.4375 171.874 32.7038C171.874 33.9332 171.583 34.9762 171.001 35.8327C170.425 36.685 169.665 37.4005 168.778 37.9283C167.877 38.4682 166.873 38.8593 165.766 39.1014C164.659 39.3435 163.58 39.4646 162.529 39.4646C159.113 39.4646 156.496 38.7104 154.676 37.2019C152.855 35.6931 151.945 33.3185 151.945 30.0776H150.819C150.819 33.6911 151.804 36.3357 153.775 38.0121C155.745 39.6883 158.663 40.5263 162.529 40.5263C163.767 40.5263 165.015 40.3865 166.273 40.1071C167.53 39.8278 168.656 39.3717 169.65 38.7382C170.636 38.1137 171.465 37.2727 172.071 36.28C172.69 35.274 173 34.0449 173 32.5921C173 31.2138 172.728 30.0964 172.184 29.2395C171.64 28.383 170.927 27.6751 170.044 27.1164C169.163 26.5577 168.168 26.12 167.061 25.8034C165.947 25.485 164.831 25.1776 163.711 24.8812C162.333 24.5224 160.954 24.1686 159.573 23.8198C158.391 23.5217 157.293 23.1679 156.28 22.7581C155.304 22.3482 154.525 21.7617 153.944 20.9981C153.362 20.2345 153.071 19.1449 153.071 17.7294C153.071 17.4688 153.146 17.003 153.296 16.3326C153.446 15.6619 153.803 14.9821 154.366 14.2929C154.929 13.6041 155.792 12.9894 156.955 12.4491C158.119 11.9092 159.714 11.6389 161.741 11.6389C163.13 11.6389 164.396 11.7882 165.541 12.086C166.686 12.3841 167.67 12.859 168.496 13.5109C169.322 14.1628 169.96 14.9915 170.41 15.9972C170.861 17.0033 171.086 18.2324 171.086 19.6852H171.086Z" fill="white"/>
</svg>
