<svg width="40" height="60" viewBox="0 0 40 60" fill="none" xmlns="http://www.w3.org/2000/svg">
<g clip-path="url(#clip0)">
<path d="M10.002 60C15.5209 60 20 55.52 20 50V40H10.002C4.48307 40 0.00396729 44.48 0.00396729 50C0.00396729 55.52 4.48307 60 10.002 60Z" fill="#0ACF83"/>
<path d="M0.00396729 30C0.00396729 24.48 4.48307 20 10.002 20H20V40H10.002C4.48307 40 0.00396729 35.52 0.00396729 30Z" fill="#A259FF"/>
<path d="M0.00457764 10C0.00457764 4.48 4.48368 0 10.0026 0H20.0006V20H10.0026C4.48368 20 0.00457764 15.52 0.00457764 10Z" fill="#F24E1E"/>
<path d="M20 0H29.998C35.5169 0 39.996 4.48 39.996 10C39.996 15.52 35.5169 20 29.998 20H20V0Z" fill="#FF7262"/>
<path d="M39.996 30C39.996 35.52 35.5169 40 29.998 40C24.4791 40 20 35.52 20 30C20 24.48 24.4791 20 29.998 20C35.5169 20 39.996 24.48 39.996 30Z" fill="#1ABCFE"/>
</g>
<defs>
<clipPath id="clip0">
<rect width="40" height="60" fill="white"/>
</clipPath>
</defs>
</svg>
