<svg width="60" height="60" viewBox="0 0 60 60" fill="none" xmlns="http://www.w3.org/2000/svg">
<path d="M30.0001 5.61646C24.0638 5.6167 18.3212 7.72924 13.8 11.5761C9.27874 15.4229 6.27382 20.753 5.3229 26.6127C4.37198 32.4723 5.53711 38.4791 8.60982 43.5583C11.6825 48.6375 16.4623 52.4577 22.0939 54.3352C23.3439 54.554 23.8126 53.804 23.8126 53.1477C23.8126 52.5539 23.7813 50.5852 23.7813 48.4914C17.5001 49.6477 15.8751 46.9603 15.3751 45.554C14.8203 44.1863 13.9408 42.9743 12.8126 42.0227C11.9376 41.5539 10.6876 40.3977 12.7813 40.3665C13.5808 40.4533 14.3475 40.7314 15.0166 41.1775C15.6858 41.6236 16.2375 42.2243 16.6251 42.9289C16.967 43.5432 17.4268 44.0839 17.978 44.5202C18.5293 44.9564 19.1613 45.2796 19.8376 45.4712C20.514 45.6628 21.2216 45.719 21.9198 45.6367C22.6179 45.5544 23.293 45.3351 23.9063 44.9914C24.0145 43.7205 24.5809 42.5322 25.5001 41.6478C19.9376 41.0228 14.1251 38.8664 14.1251 29.304C14.0899 26.8194 15.0068 24.4155 16.6876 22.5853C15.9233 20.4258 16.0127 18.056 16.9376 15.9603C16.9376 15.9603 19.0312 15.304 23.8126 18.5228C27.9033 17.3977 32.2218 17.3977 36.3126 18.5228C41.0938 15.2728 43.1876 15.9603 43.1876 15.9603C44.1126 18.056 44.202 20.4258 43.4376 22.5853C45.1234 24.4123 46.0411 26.8184 46.0001 29.304C46.0001 38.8977 40.1563 41.0228 34.5938 41.6478C35.1904 42.2525 35.6499 42.9785 35.9411 43.7765C36.2323 44.5746 36.3483 45.4259 36.2813 46.2728C36.2813 49.6166 36.25 52.304 36.25 53.1478C36.25 53.804 36.7188 54.5853 37.9688 54.3353C43.5905 52.4424 48.3565 48.6134 51.4161 43.5316C54.4757 38.4498 55.6298 32.446 54.6723 26.592C53.7148 20.7381 50.708 15.4149 46.1887 11.5727C41.6695 7.73058 35.9318 5.61954 30.0001 5.61646Z" fill="#1FBA73"/>
</svg>
