<svg width="60" height="60" viewBox="0 0 60 60" fill="none" xmlns="http://www.w3.org/2000/svg">
<path d="M30.0001 5.6167C24.0638 5.61695 18.3213 7.72948 13.8 11.5763C9.2788 15.4232 6.27388 20.7532 5.32296 26.6129C4.37204 32.4726 5.53717 38.4794 8.60988 43.5586C11.6826 48.6378 16.4623 52.4579 22.0939 54.3354C23.3439 54.5542 23.8127 53.8042 23.8127 53.1479C23.8127 52.5542 23.7814 50.5854 23.7814 48.4917C17.5001 49.6479 15.8751 46.9605 15.3751 45.5543C14.8203 44.1866 13.9408 42.9746 12.8126 42.0229C11.9376 41.5542 10.6876 40.3979 12.7814 40.3667C13.5808 40.4535 14.3476 40.7317 15.0167 41.1777C15.6858 41.6238 16.2375 42.2246 16.6251 42.9292C16.9671 43.5434 17.4268 44.0842 17.9781 44.5204C18.5294 44.9567 19.1613 45.2798 19.8377 45.4714C20.5141 45.663 21.2217 45.7193 21.9198 45.637C22.618 45.5546 23.2931 45.3353 23.9063 44.9917C24.0146 43.7207 24.581 42.5324 25.5001 41.648C19.9376 41.023 14.1251 38.8667 14.1251 29.3043C14.09 26.8196 15.0068 24.4157 16.6876 22.5855C15.9233 20.4261 16.0128 18.0562 16.9376 15.9605C16.9376 15.9605 19.0313 15.3042 23.8126 18.523C27.9033 17.398 32.2219 17.398 36.3126 18.523C41.0938 15.273 43.1876 15.9605 43.1876 15.9605C44.1126 18.0562 44.2021 20.4261 43.4376 22.5855C45.1235 24.4126 46.0411 26.8186 46.0001 29.3043C46.0001 38.8979 40.1563 41.023 34.5939 41.648C35.1905 42.2527 35.65 42.9788 35.9412 43.7768C36.2324 44.5748 36.3484 45.4262 36.2814 46.273C36.2814 49.6168 36.2501 52.3042 36.2501 53.148C36.2501 53.8043 36.7189 54.5855 37.9689 54.3355C43.5905 52.4427 48.3565 48.6136 51.4162 43.5318C54.4758 38.45 55.6298 32.4463 54.6723 26.5923C53.7148 20.7383 50.7081 15.4151 46.1888 11.573C41.6695 7.73082 35.9319 5.61979 30.0001 5.6167Z" fill="#A29BFE"/>
</svg>
