<svg width="67" height="67" viewBox="0 0 67 67" fill="none" xmlns="http://www.w3.org/2000/svg">
<path d="M7 3L11.9144 57.0233L33.9671 63L56.0807 57.0301L61 3H7Z" fill="white"/>
<path d="M4.72769 1.04688L9.96468 59.7206L33.4649 66.2117L57.0301 59.7279L62.2723 1.04688H4.72769ZM51.3796 14.9384L51.0514 18.6925L50.9069 20.4141H23.3401L23.998 27.7422H50.2516L50.0757 29.559L48.3834 48.4651L48.2588 49.6533L33.5 53.7094V53.7104L33.4822 53.7199L18.7333 49.8344L17.732 38.7344H24.9633L25.4757 44.4498L33.4775 46.5859H33.5V46.3001L41.5374 44.2718L42.377 35.0703H17.4101L15.6393 15.1184L15.4671 13.0859H51.5523L51.3796 14.9384Z" fill="#E44D26"/>
</svg>
