<svg width="63" height="63" viewBox="0 0 63 63" fill="none" xmlns="http://www.w3.org/2000/svg">
<path d="M0 0H63V63H0V0Z" fill="#F7DF1E"/>
<path d="M16.5651 52.6474L21.386 49.7297C22.3163 51.3788 23.1623 52.7741 25.1919 52.7741C27.1373 52.7741 28.364 52.0132 28.364 49.0532V28.9232H34.2843V49.1369C34.2843 55.2688 30.6899 58.06 25.4456 58.06C20.7095 58.06 17.9604 55.6072 16.5648 52.6469L16.5651 52.6474ZM37.5 52.013L42.3205 49.222C43.5896 51.2944 45.2389 52.8167 48.1566 52.8167C50.6099 52.8167 52.1741 51.5902 52.1741 49.8985C52.1741 47.8688 50.5671 47.1497 47.8606 45.966L46.3808 45.331C42.1094 43.5131 39.2761 41.2294 39.2761 36.4084C39.2761 31.9679 42.6591 28.5846 47.9455 28.5846C51.7092 28.5846 54.4158 29.8958 56.3609 33.3212L51.7511 36.2817C50.7359 34.4633 49.6369 33.7444 47.9452 33.7444C46.2112 33.7444 45.1117 34.844 45.1117 36.2817C45.1117 38.0577 46.2112 38.7771 48.7485 39.8766L50.2285 40.5108C55.2611 42.6678 58.0944 44.8667 58.0944 49.8141C58.0944 55.143 53.9078 58.0607 48.2833 58.0607C42.7859 58.0607 39.2335 55.4389 37.4998 52.0132" fill="black"/>
</svg>
