<svg width="76" height="76" viewBox="0 0 76 76" fill="none" xmlns="http://www.w3.org/2000/svg">
<path fill-rule="evenodd" clip-rule="evenodd" d="M52.2726 25.4197C53.2255 28.1765 53.9119 30.9908 54.1375 33.9079C54.4178 37.5268 54.2895 41.1202 53.5266 44.6797C53.5058 44.7777 53.4619 44.8697 53.4292 44.9647C53.1899 44.9653 52.9459 44.9356 52.7119 44.9719C50.7354 45.2824 48.7605 45.6042 46.7857 45.9242C44.7444 46.255 42.7001 46.5726 40.6624 46.9259C39.9404 47.0506 39.0468 46.9016 38.7553 47.9002C38.747 47.9276 38.6638 47.9323 38.6157 47.9477L38.7143 41.98C38.6805 37.1801 38.6472 32.3802 38.614 27.5803L39.5651 27.4171C41.1208 27.1623 42.6764 26.9041 44.2332 26.6565C46.091 26.3614 47.9507 26.0746 49.8097 25.7866C50.6297 25.659 51.4508 25.542 52.2726 25.4197Z" fill="#439934"/>
<path fill-rule="evenodd" clip-rule="evenodd" d="M36.6516 65.3446C35.6481 64.4818 34.6097 63.6571 33.6478 62.7499C28.4721 57.8681 24.6863 52.1223 22.822 45.1951C22.3084 43.2885 21.9658 41.3511 21.8559 39.3811C21.7787 38.0024 21.6671 36.6112 21.7645 35.2397C22.024 31.5917 22.5512 27.9787 23.6211 24.4649L23.6799 24.3829C23.7838 24.5213 23.9335 24.6436 23.9863 24.7997C25.0307 27.8754 26.0674 30.9534 27.0987 34.0332C30.3394 43.7113 33.576 53.3918 36.822 63.0675C36.8855 63.2563 37.05 63.4113 37.1681 63.5817L36.6516 65.3446Z" fill="#45A538"/>
<path fill-rule="evenodd" clip-rule="evenodd" d="M52.2725 25.4195C51.4508 25.5419 50.629 25.6588 49.8091 25.7853C47.95 26.0733 46.0904 26.3601 44.2326 26.6551C42.6758 26.9027 41.1201 27.161 39.5645 27.4157L38.6133 27.579L38.6062 26.9585C38.5747 26.4485 38.5207 25.9391 38.5148 25.429C38.4738 22.1765 38.4483 18.9239 38.4079 15.6714C38.3829 13.6354 38.3455 11.6 38.304 9.56464C38.2784 8.29996 38.2511 7.03467 38.1941 5.77177C38.1633 5.09311 38.054 4.41802 38.0095 3.73936C37.9845 3.34927 38.019 2.95621 38.0267 2.56433C38.5118 3.50424 38.9862 4.45127 39.4849 5.38405C40.2728 6.85892 41.528 7.94549 42.6579 9.13121C47.1247 13.8171 50.2959 19.2653 52.2725 25.4195Z" fill="#46A037"/>
<path fill-rule="evenodd" clip-rule="evenodd" d="M38.6151 47.9473C38.6632 47.9318 38.7469 47.9271 38.7546 47.8998C39.0462 46.9011 39.9398 47.0501 40.6618 46.9254C42.6995 46.5727 44.7438 46.2545 46.7851 45.9238C48.7599 45.6037 50.7347 45.2819 52.7113 44.9714C52.9453 44.9346 53.1893 44.9649 53.4286 44.9643C53.0593 46.2824 52.7683 47.629 52.2999 48.9109C51.7679 50.365 51.1242 51.7841 50.4408 53.1752C49.4196 55.2552 48.1472 57.1949 46.6687 58.972C45.5293 60.3424 44.2593 61.6089 42.9863 62.8599C42.2827 63.5516 41.4532 64.1151 40.6814 64.7367L40.4813 64.6002L39.7604 63.9839L39.0147 62.3493C38.5011 60.4356 38.2315 58.4875 38.187 56.508L38.2007 56.1749L38.3022 54.7344C38.336 54.2428 38.3812 53.7518 38.4019 53.259C38.4785 51.4884 38.545 49.7178 38.6151 47.9473Z" fill="#409433"/>
<path fill-rule="evenodd" clip-rule="evenodd" d="M38.6151 47.9472C38.5451 49.7177 38.4786 51.4883 38.4032 53.2594C38.3824 53.7522 38.3373 54.2433 38.3034 54.7349L37.8492 54.9065C36.8404 51.9366 35.831 48.9981 34.8436 46.0519C33.2108 41.1778 31.5976 36.296 29.9672 31.4207C28.6508 27.4853 27.3238 23.5541 25.989 19.6247C25.9267 19.4406 25.7474 19.2969 25.6227 19.1342L28.5297 13.7893C28.6294 13.9627 28.7612 14.1248 28.8242 14.3112C30.169 18.2911 31.5115 22.2716 32.8427 26.2563C34.5741 31.4397 36.2947 36.6273 38.0249 41.8113C38.0938 42.0186 38.2078 42.2097 38.3165 42.4419L38.7143 41.9788C38.681 43.9684 38.6478 45.9575 38.6151 47.9472Z" fill="#4FAA41"/>
<path fill-rule="evenodd" clip-rule="evenodd" d="M25.6234 19.1348C25.748 19.2975 25.9268 19.4411 25.9897 19.6252C27.3244 23.5546 28.6515 27.4859 29.9678 31.4212C31.5983 36.2965 33.2115 41.1783 34.8443 46.0524C35.8311 48.998 36.8405 51.9371 37.8498 54.907L38.3041 54.7354L38.2025 56.1759L38.1105 56.5078C37.9526 58.0848 37.8196 59.6653 37.6272 61.2388C37.5304 62.0273 37.325 62.8015 37.1688 63.5823C37.0512 63.4119 36.8862 63.2569 36.8227 63.0681C33.5766 53.3918 30.3401 43.7119 27.0994 34.0337C26.0681 30.954 25.0314 27.876 23.987 24.8003C23.9341 24.6442 23.7851 24.5219 23.6806 24.3835C24.3278 22.6337 24.9756 20.884 25.6234 19.1348Z" fill="#4AA73C"/>
<path fill-rule="evenodd" clip-rule="evenodd" d="M38.7137 41.9792L38.3159 42.4424C38.2072 42.2102 38.0932 42.0184 38.0244 41.8118C36.2948 36.6278 34.5735 31.4402 32.8421 26.2567C31.5109 22.2721 30.1685 18.2916 28.8236 14.3117C28.7613 14.1252 28.6295 13.9625 28.5291 13.7898L32.1243 9.06055C32.2377 9.21195 32.3992 9.34673 32.458 9.51714C33.456 12.439 34.4452 15.3644 35.4285 18.2916C36.347 21.0252 37.2519 23.763 38.1811 26.493C38.2435 26.6759 38.4602 26.8054 38.605 26.9597L38.6122 27.5802C38.6466 32.3789 38.6805 37.1794 38.7137 41.9792Z" fill="#57AE47"/>
<path fill-rule="evenodd" clip-rule="evenodd" d="M38.6062 26.9587C38.4613 26.8043 38.2446 26.6749 38.1823 26.492C37.2531 23.762 36.3482 21.0242 35.4297 18.2905C34.4464 15.3634 33.4572 12.4385 32.4591 9.51611C32.4003 9.3457 32.2388 9.21092 32.1254 9.05951C33.2945 7.91476 34.4274 6.72905 35.6434 5.63714C36.7246 4.66695 37.5939 3.6267 37.6337 2.09364C37.6354 2.03011 37.6687 1.96658 37.7197 1.78845L38.0279 2.56389C38.0202 2.95636 37.9851 3.34883 38.0107 3.73892C38.0552 4.41758 38.1645 5.09267 38.1953 5.77133C38.2523 7.03423 38.2797 8.29951 38.3052 9.5642C38.3462 11.5996 38.3836 13.635 38.4091 15.6709C38.4489 18.9235 38.475 22.176 38.516 25.4286C38.5207 25.9398 38.5742 26.4487 38.6062 26.9587Z" fill="#60B24F"/>
<path fill-rule="evenodd" clip-rule="evenodd" d="M37.1676 63.5818C37.3237 62.801 37.5292 62.0262 37.6259 61.2383C37.8189 59.6654 37.9513 58.0843 38.1092 56.5073L38.1484 56.5013L38.1876 56.5079C38.2322 58.4874 38.5017 60.4355 39.0153 62.3492C38.9108 62.4869 38.763 62.6098 38.7077 62.7654C38.2761 63.9826 37.8694 65.2093 37.4353 66.4265C37.376 66.5927 37.2109 66.7222 37.0945 66.8682L36.651 65.3447L37.1676 63.5818Z" fill="#A9AA88"/>
<path fill-rule="evenodd" clip-rule="evenodd" d="M37.0952 66.8686C37.2115 66.7226 37.3772 66.5931 37.436 66.4269C37.87 65.2097 38.2773 63.9836 38.7084 62.7658C38.7636 62.6103 38.9108 62.4874 39.0159 62.3496L39.7611 63.9848C39.6138 64.1938 39.4108 64.382 39.3288 64.6148L37.9015 68.8061C37.8427 68.9741 37.642 69.0928 37.5078 69.2347L37.0952 66.8686Z" fill="#B6B598"/>
<path fill-rule="evenodd" clip-rule="evenodd" d="M37.5077 69.2343C37.6425 69.093 37.8426 68.9737 37.9013 68.8056L39.3287 64.6143C39.4101 64.3822 39.6137 64.1934 39.761 63.9844L40.4824 64.6001C40.1338 64.9445 39.9403 65.3423 40.0567 65.8452L39.8376 66.5624C39.7378 66.6853 39.5935 66.7922 39.5443 66.9329C39.0461 68.3597 38.5705 69.7942 38.0688 71.221C38.0053 71.4021 37.8289 71.544 37.7042 71.7031C37.6395 70.8796 37.5736 70.0578 37.5077 69.2343Z" fill="#C2C1A7"/>
<path fill-rule="evenodd" clip-rule="evenodd" d="M37.705 71.7031C37.8291 71.5434 38.0054 71.4014 38.0695 71.2209C38.5712 69.7948 39.0468 68.3603 39.545 66.9329C39.5943 66.7927 39.738 66.6853 39.8383 66.5624L39.5361 69.8547C39.4553 69.9479 39.3384 70.0293 39.2998 70.1379C38.9584 71.0963 38.6366 72.0617 38.294 73.02C38.2233 73.2177 38.0879 73.3923 37.9822 73.577C37.8884 73.4541 37.7204 73.3353 37.7127 73.207C37.6824 72.7077 37.7032 72.2048 37.705 71.7031Z" fill="#CECDB7"/>
<path fill-rule="evenodd" clip-rule="evenodd" d="M37.9816 73.5768C38.0873 73.3916 38.2226 73.217 38.2933 73.0199C38.6365 72.0622 38.9577 71.0967 39.2991 70.1378C39.3377 70.0292 39.4552 69.9484 39.5354 69.8546L39.5425 72.0159L38.8193 73.8707L37.9816 73.5768Z" fill="#DBDAC7"/>
<path fill-rule="evenodd" clip-rule="evenodd" d="M38.8193 73.8714L39.5425 72.0165L39.6916 74.211L38.8193 73.8714Z" fill="#EBE9DC"/>
<path fill-rule="evenodd" clip-rule="evenodd" d="M40.0566 65.8456C39.9403 65.3427 40.1332 64.9442 40.4824 64.6005L40.6824 64.737L40.0566 65.8456Z" fill="#CECDB7"/>
<path fill-rule="evenodd" clip-rule="evenodd" d="M38.1877 56.5083L38.1485 56.5018L38.1093 56.5077L38.2013 56.1758L38.1877 56.5083Z" fill="#4FAA41"/>
</svg>
