<svg width="216" height="45" viewBox="0 0 216 45" fill="none" xmlns="http://www.w3.org/2000/svg">
<path d="M40.4741 44.9102C39.2538 44.9102 38.053 44.4385 37.1553 43.5445L9.38531 15.9392V40.2462C9.38531 42.8231 7.28472 44.9106 4.69266 44.9106C2.10228 44.9106 0 42.8227 0 40.2462V4.67773C0 2.78956 1.14509 1.08983 2.89818 0.367969C3.75541 0.0141378 4.69905 -0.0786242 5.6094 0.101452C6.51974 0.281528 7.35576 0.726326 8.01138 1.37941L35.7814 28.9847V4.67773C35.7814 2.10086 37.882 0.0133336 40.4741 0.0133336C43.0666 0.0133336 45.1667 2.10128 45.1667 4.67773V40.2462C45.166 41.4831 44.6714 42.6691 43.7915 43.5437C42.9116 44.4183 41.7184 44.9099 40.4741 44.9106V44.9102ZM62.2045 0.0582401L60.915 2.45046L50.9424 20.4655L49.6529 22.7402L50.9424 25.0124L60.9155 42.4462L62.2628 44.8359H88.3667L89.6562 42.2129L97.106 27.2863L100.449 20.523H92.8829L73.8196 20.5809C71.3403 20.5474 69.0594 22.7805 69.0594 25.2453C69.0594 27.7097 71.3403 29.945 73.8196 29.9097L85.3165 29.8518L82.5011 35.5067H67.7188L60.3851 22.6798L67.7771 9.38662H83.5009L87.1667 16.8642H96.612L90.6586 2.68338L89.367 0.0582401H62.2049H62.2045ZM109.744 0.000323294C107.285 0.0301211 105.078 2.28048 105.11 4.72264V16.878H114.495V4.72264C114.525 2.24061 112.239 -0.0311532 109.744 0.000323294ZM124.787 45C123.543 44.9992 122.35 44.5075 121.47 43.6329C120.591 42.7582 120.096 41.5723 120.096 40.3356V4.76713C120.096 2.19067 122.197 0.103147 124.789 0.103147C127.381 0.103147 129.481 2.19067 129.481 4.76755V29.0741L157.252 1.46839C157.908 0.815589 158.744 0.370989 159.654 0.190928C160.564 0.0108664 161.508 0.103449 162.365 0.456943C163.223 0.810294 163.955 1.40836 164.471 2.17554C164.986 2.94272 165.261 3.84458 165.261 4.76713V40.3356C165.261 42.9116 163.161 44.9996 160.569 44.9996C157.976 44.9996 155.876 42.9116 155.876 40.3352V16.029L128.105 43.6343C127.67 44.0677 127.152 44.4114 126.583 44.6457C126.013 44.8801 125.403 45.0005 124.787 45H124.787ZM200.022 22.5157L214.62 8.05873C216.455 6.24149 216.461 3.28773 214.631 1.46125C212.803 -0.363545 209.833 -0.367322 207.996 1.44992L193.376 15.9321L178.755 1.44992C176.917 -0.369001 173.948 -0.363126 172.12 1.46125C170.29 3.28773 170.295 6.24149 172.129 8.05873L186.727 22.5161L172.172 36.9324C170.335 38.7517 170.331 41.7034 172.161 43.5277C172.596 43.9639 173.114 44.3098 173.685 44.5456C174.255 44.7813 174.867 44.9021 175.485 44.901C176.683 44.901 177.881 44.4477 178.796 43.5391L193.376 29.1002L207.953 43.5391C208.388 43.9715 208.904 44.3144 209.473 44.5481C210.041 44.7818 210.65 44.9017 211.265 44.901C212.47 44.901 213.672 44.4439 214.59 43.5277C216.418 41.7034 216.414 38.7517 214.578 36.9328L200.022 22.5157ZM109.744 44.8674C107.285 44.838 105.078 42.5876 105.11 40.1455V20.6204H114.495V40.1455C114.525 42.625 112.239 44.8972 109.744 44.8674Z" fill="#009900"/>
</svg>
