<svg width="74" height="74" viewBox="0 0 74 74" fill="none" xmlns="http://www.w3.org/2000/svg">
<path d="M65.1957 17.5368L39.7022 2.73393C38.0944 1.81818 36.001 1.81818 34.3805 2.73393L8.61464 17.5368C6.95542 18.4913 5.78125 20.2852 5.78125 22.204V51.7705C5.78125 53.6893 6.98606 55.4838 8.64528 56.4435L15.4527 60.31C18.7064 61.9125 19.8563 61.9125 21.3369 61.9125C26.1544 61.9125 28.9062 58.9994 28.9062 53.9182V24.7287C28.9062 24.3165 28.6918 23.7031 28.2871 23.7031H25.0363C24.6247 23.7031 23.7031 24.3165 23.7031 24.7281V53.9176C23.7031 56.17 21.6658 58.4114 17.8583 56.5076L10.8242 52.4533C10.5791 52.3203 10.4062 52.0526 10.4062 51.7705V22.204C10.4062 21.9254 10.7271 21.6456 10.974 21.5028L36.6566 6.72531C36.8965 6.58945 37.2492 6.58945 37.4885 6.72531L62.8578 21.4993C63.1006 21.6456 63.015 21.9167 63.015 22.204V51.7705C63.015 52.0526 63.1208 52.3272 62.8809 52.4631L37.3937 67.2492C37.1752 67.3804 36.904 67.3804 36.6647 67.2492L30.1278 63.3474C29.9307 63.233 29.6965 63.1919 29.5075 63.2977C27.6887 64.3285 27.3534 64.4655 25.6474 65.0569C25.2276 65.2032 24.6085 65.457 25.8844 66.1721L34.4395 71.2331C35.2587 71.7071 36.1895 71.9534 37.126 71.9534C38.0753 71.9534 39.0049 71.7071 39.8241 71.2331L65.1952 56.4435C66.8544 55.4768 67.6406 53.6893 67.6406 51.7705V22.204C67.6406 20.2852 66.8544 18.4959 65.1957 17.5368ZM45.0417 47.0854C38.2626 47.0854 36.7693 45.2151 36.2716 41.8441C36.2138 41.481 35.9056 41.0468 35.5362 41.0468H32.223C31.8131 41.0468 31.4835 41.544 31.4835 41.9522C31.4835 46.2685 33.8301 51.4982 45.0423 51.4982C53.1586 51.4982 57.8119 48.3445 57.8119 42.7633C57.8119 37.2295 54.0732 35.7772 46.202 34.7355C38.2459 33.6838 37.4376 33.1525 37.4376 31.2887C37.4376 29.752 38.1221 27.7026 44.0132 27.7026C49.2771 27.7026 51.2173 28.8322 52.0156 32.3802C52.0839 32.7138 52.3885 32.9531 52.7325 32.9531H56.059C56.2637 32.9531 56.4591 32.8704 56.6025 32.7242C56.7412 32.5669 56.8147 32.3698 56.7962 32.1582C56.281 26.0486 52.222 23.2013 44.0127 23.2013C36.7104 23.2013 32.3542 26.285 32.3542 31.454C32.3542 37.0607 36.6884 38.6101 43.6982 39.3032C52.0839 40.1253 52.736 41.3509 52.736 43.0003C52.736 45.8649 50.4362 47.0854 45.0417 47.0854Z" fill="#83CD29"/>
</svg>
