<svg width="64" height="62" viewBox="0 0 64 62" fill="none" xmlns="http://www.w3.org/2000/svg">
<g clip-path="url(#clip0)">
<path d="M2.66663 2.65527H61.3335V59.3447H2.66663V2.65527Z" fill="url(#paint0_radial)"/>
<path d="M2.66664 2.65705H61.3335V59.3464H2.66664V2.65705ZM0 61.9956H64.0001V0.00805664H0V61.9956ZM43.1467 25.4388C41.04 25.4388 40.3201 26.4984 40.3201 27.3725C40.3201 28.3262 40.8001 28.9884 43.6268 30.4454C47.8134 32.4587 49.1201 34.3925 49.1201 37.227C49.1201 41.4654 45.8668 43.7436 41.4668 43.7436C39.1467 43.7436 37.1467 43.2667 36.0001 42.6046C35.8134 42.5251 35.7868 42.3927 35.7868 42.1807V38.2866C35.7868 38.0217 35.9201 37.9421 36.1068 38.0747C37.7868 39.1609 39.7068 39.6376 41.4668 39.6376C43.5735 39.6376 44.4535 38.7634 44.4535 37.5713C44.4535 36.6177 43.8401 35.77 41.1467 34.3925C37.36 32.5912 35.7868 30.7634 35.7868 27.717C35.7868 24.2996 38.4802 21.4652 43.1467 21.4652C45.4401 21.4652 47.0401 21.8097 47.9201 22.207C48.1334 22.3394 48.1867 22.5513 48.1867 22.7367V26.3658C48.1867 26.5777 48.0534 26.7103 47.7867 26.6307C46.6134 25.8892 44.8801 25.4388 43.1467 25.4388ZM20.2133 28.5911C20.8267 28.6441 21.3067 28.6441 22.3734 28.6441C25.4935 28.6441 28.4268 27.558 28.4268 23.3461C28.4268 19.9819 26.3201 18.2864 22.7734 18.2864C21.7068 18.2864 20.6934 18.3394 20.2133 18.3658V28.5911ZM15.4668 14.5247C15.4668 14.3393 15.8402 14.2068 16.0534 14.2068C17.7601 14.1273 20.2934 14.0743 22.9334 14.0743C30.3201 14.0743 33.2 18.1009 33.2 23.2401C33.2 29.9686 28.2933 32.856 22.2667 32.856C21.2534 32.856 20.9068 32.8031 20.1867 32.8031V42.9754C20.1867 43.1873 20.1067 43.2932 19.8667 43.2932H15.7867C15.5734 43.2932 15.4667 43.2138 15.4667 42.9754V14.5247H15.4668Z" fill="#31C5F0"/>
</g>
<defs>
<radialGradient id="paint0_radial" cx="0" cy="0" r="1" gradientUnits="userSpaceOnUse" gradientTransform="translate(21.9886 15.3594) scale(44.5868 42.8826)">
<stop stop-color="#34364E" stop-opacity="0.98"/>
<stop offset="1" stop-color="#0C0824"/>
</radialGradient>
<clipPath id="clip0">
<rect width="64" height="62" fill="white"/>
</clipPath>
</defs>
</svg>
