<svg width="80" height="60" viewBox="0 0 80 60" fill="none" xmlns="http://www.w3.org/2000/svg">
<path d="M68.8678 34.4537C66.0707 34.4695 63.6486 35.1416 61.6172 36.1424C60.8671 34.6571 60.1171 33.3592 59.9922 32.39C59.8516 31.2643 59.6797 30.5762 59.8516 29.2317C60.0233 27.8869 60.8046 25.9794 60.8046 25.823C60.7888 25.6823 60.6326 24.9944 59.0232 24.9787C57.4139 24.9631 56.023 25.2914 55.8667 25.7136C55.7104 26.1357 55.3979 27.1051 55.1948 28.1058C54.9135 29.5755 51.9757 34.782 50.3037 37.5182C49.7568 36.455 49.288 35.5169 49.1941 34.7662C49.0536 33.6407 48.8816 32.9525 49.0536 31.6081C49.2255 30.2633 50.0068 28.3559 50.0068 28.1996C49.9912 28.0589 49.8349 27.3709 48.2256 27.3553C46.6159 27.3397 45.2253 27.668 45.069 28.0901C44.9128 28.5123 44.7409 29.513 44.3971 30.4823C44.0688 31.4517 40.1622 40.1449 39.1465 42.412C38.6308 43.569 38.1778 44.4915 37.8495 45.1169C37.5214 45.7423 37.8339 45.1638 37.8026 45.2264C37.5214 45.758 37.3651 46.055 37.3651 46.055V46.0708C37.1463 46.4617 36.9119 46.8368 36.8024 46.8368C36.7243 46.8368 36.568 45.7892 36.8336 44.3509C37.4118 41.3332 38.8182 36.6271 38.8027 36.4552C38.8027 36.377 39.0682 35.5482 37.8962 35.1262C36.7555 34.704 36.3494 35.4076 36.2555 35.4076C36.1617 35.4076 36.0836 35.6578 36.0836 35.6578C36.0836 35.6578 37.3493 30.3576 33.6615 30.3576C31.3488 30.3576 28.161 32.8748 26.5827 35.1732C25.5826 35.7205 23.4575 36.8773 21.2073 38.1126C20.3478 38.5817 19.4571 39.082 18.6133 39.5354L18.4416 39.3475C13.9724 34.5788 5.70607 31.2016 6.04985 24.7911C6.17486 22.4615 6.98743 16.3168 21.9264 8.87446C34.1618 2.77672 43.9596 4.44969 45.6627 8.17087C48.0848 13.4868 40.4279 23.3683 27.7081 24.7911C22.864 25.3384 20.3167 23.4621 19.6762 22.7585C19.0043 22.0237 18.9105 21.9924 18.6605 22.1331C18.2542 22.352 18.5042 23.0087 18.6605 23.3996C19.0355 24.3846 20.5982 26.1357 23.2546 27.0113C25.5828 27.7774 31.271 28.1996 38.1466 25.5416C45.8504 22.5553 51.8665 14.2686 50.1007 7.34221C48.3037 0.29072 36.6152 -2.02329 25.5673 1.90115C18.9885 4.24643 11.8629 7.90507 6.73741 12.7051C0.643129 18.3963 -0.325706 23.3683 0.0805796 25.4322C1.50274 32.7964 11.6441 37.5964 15.7069 41.1456C15.5038 41.2549 15.3163 41.3643 15.1444 41.4583C13.113 42.4588 5.37792 46.5084 3.44025 50.7923C1.25256 55.6393 3.78403 59.1261 5.47168 59.5951C10.6909 61.0492 16.0351 58.4381 18.926 54.1384C21.8011 49.8387 21.4574 44.257 20.1292 41.7084L20.0822 41.6146L21.6761 40.6765C22.7076 40.0667 23.7233 39.5039 24.6138 39.019C24.1139 40.3793 23.7544 41.9897 23.567 44.335C23.3482 47.087 24.4733 50.6516 25.9578 52.0588C26.6141 52.6684 27.3955 52.6842 27.8799 52.6842C29.5988 52.6842 30.3801 51.2612 31.2396 49.5572C32.3021 47.4777 33.2397 45.0698 33.2397 45.0698C33.2397 45.0698 32.0677 51.5897 35.2712 51.5897C36.4431 51.5897 37.6151 50.0731 38.1464 49.2914V49.307C38.1464 49.307 38.1777 49.2601 38.2402 49.1506C38.3057 49.0536 38.3683 48.9546 38.4277 48.8537V48.8225C38.8965 48.0094 39.9434 46.1488 41.5061 43.0687C43.5217 39.0974 45.4595 34.1253 45.4595 34.1253C45.4595 34.1253 45.6471 35.3449 46.2252 37.3462C46.5689 38.5346 47.3189 39.8322 47.8971 41.0987C47.4283 41.7553 47.147 42.1307 47.147 42.1307L47.1627 42.1464C46.7878 42.6467 46.3657 43.1785 45.9283 43.7099C44.3344 45.6174 42.428 47.7908 42.178 48.4163C41.8811 49.151 41.9436 49.6982 42.5218 50.1361C42.9437 50.4488 43.6938 50.5112 44.4907 50.4488C45.9283 50.3549 46.9284 49.9954 47.4285 49.7764C48.2098 49.4949 49.1005 49.0728 49.9599 48.4474C51.5226 47.2905 52.4758 45.6488 52.382 43.4599C52.3351 42.256 51.9445 41.0677 51.4601 39.942C51.6007 39.7387 51.7415 39.5353 51.882 39.3166C54.3509 35.7047 56.2574 31.7335 56.2574 31.7335C56.2574 31.7335 56.4449 32.953 57.0231 34.9543C57.3198 35.9706 57.9138 37.0809 58.4451 38.1753C56.1324 40.0672 54.6791 42.2561 54.1791 43.6946C53.2571 46.3526 53.9759 47.5565 55.3354 47.8379C55.9447 47.963 56.8199 47.6816 57.4761 47.4001C58.2886 47.1343 59.2731 46.6807 60.1796 46.0086C61.7422 44.8516 63.2423 43.2412 63.1642 41.0679C63.1173 40.0672 62.8517 39.0822 62.4923 38.1441C64.4612 37.331 67.0081 36.862 70.243 37.2529C77.1967 38.0659 78.5718 42.4125 78.3063 44.2262C78.0407 46.04 76.5874 47.0405 76.1028 47.3532C75.6184 47.6503 75.4622 47.7599 75.509 47.9786C75.5715 48.3071 75.7903 48.2913 76.2122 48.229C76.7904 48.135 79.8688 46.7436 79.9938 43.3978C80.1813 39.0975 76.1028 34.4069 68.8678 34.4537ZM15.2382 52.5436C12.9411 55.0609 9.70642 56.0147 8.3313 55.2016C6.8468 54.3417 7.42481 50.6361 10.2533 47.9625C11.9722 46.3365 14.2068 44.8355 15.6757 43.913C16.0038 43.7097 16.5039 43.4128 17.0977 43.0531C17.1915 42.9907 17.254 42.9593 17.254 42.9593C17.3633 42.8967 17.4883 42.8185 17.6134 42.7404C18.6603 46.5554 17.6602 49.9013 15.2382 52.5436ZM32.0365 41.1143C31.2395 43.0687 29.5519 48.0876 28.5362 47.8062C27.661 47.5716 27.1298 43.7723 28.3641 40.0198C28.9892 38.1278 30.3174 35.8765 31.0988 35.0008C32.3647 33.5936 33.7396 33.1245 34.0835 33.703C34.4898 34.4537 32.5365 39.8947 32.0365 41.1143ZM45.8971 47.7436C45.5533 47.9158 45.2408 48.0407 45.1001 47.947C44.9908 47.8845 45.2406 47.65 45.2406 47.65C45.2406 47.65 46.9751 45.7894 47.6627 44.9294C48.0534 44.4293 48.5222 43.8508 49.0222 43.1939V43.3816C49.0224 45.6329 46.8659 47.1339 45.8971 47.7436ZM56.5854 45.3045C56.3353 45.1169 56.3667 44.5384 57.2104 42.7247C57.5387 42.0055 58.2886 40.8016 59.5856 39.6602C59.7419 40.1293 59.8358 40.5825 59.82 41.0048C59.8045 43.8192 57.8044 44.8667 56.5854 45.3045Z" fill="#CF649A"/>
</svg>
