<svg width="63" height="63" viewBox="0 0 63 63" fill="none" xmlns="http://www.w3.org/2000/svg">
<rect x="12.6" y="23.8" width="48.3" height="36.4" fill="white"/>
<path d="M0.984375 31.4557V62.2174H62.5078V0.69397H0.984375V31.4557ZM50.5624 28.9948C52.036 29.3367 53.3753 30.1074 54.4113 31.2096C54.9817 31.8034 55.4776 32.4645 55.8879 33.1783C55.8879 33.2571 53.2301 35.0536 51.6108 36.0576C51.5517 36.097 51.3155 35.8411 51.0546 35.4523C50.759 34.9422 50.339 34.5153 49.8338 34.2115C49.3286 33.9077 48.7546 33.7368 48.1655 33.7148C46.3001 33.5869 45.0991 34.5663 45.109 36.1758C45.0936 36.5765 45.1853 36.9741 45.3748 37.3275C45.7833 38.179 46.5462 38.6859 48.9382 39.7195C53.3433 41.6144 55.2284 42.8646 56.3998 44.6414C57.709 46.6101 57.9994 49.7897 57.1134 52.1423C56.1291 54.7017 53.7173 56.4391 50.3065 57.015C48.7486 57.1934 47.1746 57.1769 45.6209 56.9658C43.2496 56.5811 41.0622 55.452 39.375 53.7419C38.809 53.1169 37.7065 51.4877 37.7754 51.3696C37.9551 51.2362 38.1442 51.1161 38.3414 51.0103L40.6055 49.7109L42.3724 48.6872L42.7416 49.2335C43.3645 50.1247 44.1574 50.884 45.0745 51.468C47.0433 52.5016 49.7306 52.3589 51.0595 51.1629C51.5057 50.7246 51.7841 50.1437 51.8461 49.5214C51.9082 48.8991 51.75 48.2747 51.3991 47.7569C50.907 47.0728 49.9226 46.4969 47.1712 45.296C43.9966 43.9277 42.6284 43.0812 41.3782 41.7326C40.5978 40.8426 40.0215 39.7927 39.69 38.6564C39.4427 37.3582 39.4061 36.0287 39.5817 34.7189C40.2363 31.6526 42.5348 29.5115 45.8916 28.8766C47.4461 28.6843 49.0208 28.7274 50.5624 29.0046V28.9948ZM36.1216 31.5738V34.0938H28.1334V56.8476H22.4684V34.0889H14.4605V31.628C14.439 30.7808 14.462 29.933 14.5294 29.0883C14.5589 29.0489 19.4513 29.0292 25.3575 29.039H36.0921L36.1216 31.5738Z" fill="#007ACC"/>
</svg>
