<svg width="28" height="31" viewBox="0 0 28 31" fill="none" xmlns="http://www.w3.org/2000/svg">
<path fill-rule="evenodd" clip-rule="evenodd" d="M14 1L1 11.15V27.1C1 27.8691 1.30436 28.6068 1.84614 29.1506C2.38791 29.6945 3.12271 30 3.88889 30H9V21H19V30H24.1111C24.8773 30 25.6121 29.6945 26.1539 29.1506C26.6956 28.6068 27 27.8691 27 27.1V11.15L14 1Z" fill="white"/>
<path d="M1 11.15L0.384591 10.3618C0.141873 10.5513 0 10.8421 0 11.15H1ZM14 1L14.6154 0.211792C14.2537 -0.0705973 13.7463 -0.0705973 13.3846 0.211792L14 1ZM9 30V31C9.55228 31 10 30.5523 10 30H9ZM9 21V20C8.44772 20 8 20.4477 8 21H9ZM19 21H20C20 20.4477 19.5523 20 19 20V21ZM19 30H18C18 30.5523 18.4477 31 19 31V30ZM26.1539 29.1506L26.8623 29.8564L26.8623 29.8564L26.1539 29.1506ZM27 11.15H28C28 10.8421 27.8581 10.5513 27.6154 10.3618L27 11.15ZM1.61541 11.9382L14.6154 1.78821L13.3846 0.211792L0.384591 10.3618L1.61541 11.9382ZM2 27.1V11.15H0V27.1H2ZM2.5546 28.4449C2.19994 28.0888 2 27.6051 2 27.1H0C0 28.1331 0.408792 29.1247 1.13767 29.8564L2.5546 28.4449ZM3.88889 29C3.38917 29 2.90913 28.8008 2.5546 28.4449L1.13767 29.8564C1.86668 30.5882 2.85625 31 3.88889 31V29ZM9 29H3.88889V31H9V29ZM10 30V21H8V30H10ZM9 22H19V20H9V22ZM18 21V30H20V21H18ZM24.1111 29H19V31H24.1111V29ZM25.4454 28.4449C25.0909 28.8008 24.6108 29 24.1111 29V31C25.1437 31 26.1333 30.5882 26.8623 29.8564L25.4454 28.4449ZM26 27.1C26 27.6051 25.8001 28.0888 25.4454 28.4449L26.8623 29.8564C27.5912 29.1247 28 28.1331 28 27.1H26ZM26 11.15V27.1H28V11.15H26ZM13.3846 1.78821L26.3846 11.9382L27.6154 10.3618L14.6154 0.211792L13.3846 1.78821Z" fill="white"/>
</svg>
