<svg width="60" height="60" viewBox="0 0 60 60" fill="none" xmlns="http://www.w3.org/2000/svg">
<path d="M16.7755 29.5956C16.7755 30.0679 16.9672 30.4956 17.2766 30.805C17.5862 31.1146 18.0139 31.3062 18.4861 31.3062H41.5049C42.4498 31.306 43.2156 30.5402 43.2156 29.5955C43.2153 28.6507 42.4495 27.8849 41.5049 27.8848L18.4863 27.8849C17.5415 27.8849 16.7757 28.6507 16.7755 29.5956Z" fill="white"/>
<path d="M54.7251 29.5953C54.7253 26.4547 53.5024 23.5023 51.2816 21.2814C49.0607 19.0609 46.1083 17.8381 42.9678 17.8381L35.019 17.8379C34.0741 17.8381 33.3083 18.6038 33.3081 19.5488C33.3083 20.4931 34.0739 21.2593 35.0187 21.2593H42.9679C45.1945 21.2594 47.2879 22.1262 48.8625 23.7008C50.4369 25.2753 51.3038 27.3685 51.3038 29.5952C51.304 31.8217 50.4367 33.9153 48.8624 35.4897C47.2879 37.0642 45.1947 37.931 42.9679 37.931H35.019C34.0741 37.9312 33.3083 38.697 33.3083 39.6417C33.3085 40.1142 33.5001 40.5419 33.8096 40.8513C34.1191 41.1609 34.5468 41.3524 35.0192 41.3526L42.9679 41.3524C46.1085 41.3524 49.0612 40.1296 51.2817 37.9091C53.5023 35.6883 54.7254 32.7358 54.7251 29.5953Z" fill="white"/>
<path d="M24.9729 37.9314L17.0236 37.9317C14.7971 37.9316 12.7037 37.0645 11.1295 35.4902C9.55501 33.9157 8.68795 31.8227 8.68795 29.596C8.68778 24.9997 12.4275 21.26 17.0239 21.26H24.9729C25.9178 21.2598 26.6836 20.494 26.6836 19.5493C26.6835 18.6047 25.9176 17.8387 24.9729 17.8386L17.0238 17.8384C10.5407 17.8386 5.26651 23.1128 5.26651 29.5957C5.26667 32.736 6.48935 35.6886 8.7102 37.9091C10.9309 40.1298 13.8833 41.3527 17.0238 41.3527L24.9732 41.3528C25.9182 41.3527 26.6839 40.5868 26.6839 39.6421C26.6833 38.6977 25.9178 37.9316 24.9729 37.9314Z" fill="white"/>
</svg>
