<svg width="28" height="28" viewBox="0 0 28 28" fill="none" xmlns="http://www.w3.org/2000/svg">
<path d="M7.70307 9.35905H22.1192V8.4579C22.1192 7.71416 21.51 7.10617 20.7674 7.10617H14.8174V6.31915C14.8174 5.19931 13.9066 4.29214 12.7904 4.29214H9.32997C8.78927 4.29214 8.28104 4.50359 7.89653 4.8881C7.51202 5.27262 7.30174 5.77722 7.30174 6.31915V7.10734H1.35173C0.607991 7.10617 0 7.71411 0 8.4579V20.5298L4.54425 11.3236C5.09576 10.2025 6.4559 9.35905 7.70307 9.35905ZM8.65352 6.31915C8.65352 6.14013 8.72683 5.97068 8.85299 5.84334C8.97916 5.71356 9.14978 5.6427 9.3288 5.6427H12.7893C13.163 5.6427 13.4645 5.9455 13.4645 6.31915V7.10734H8.65358V6.31915H8.65352Z" fill="white"/>
<path d="M27.12 10.7084H7.70307C6.9605 10.7084 6.08219 11.2539 5.75655 11.9195L0.534684 22.4979C0.205483 23.1624 0.54549 23.7079 1.28806 23.7079H20.705C21.4476 23.7079 22.3271 23.1635 22.6539 22.4979L27.8746 11.9195C28.2026 11.2539 27.865 10.7084 27.12 10.7084Z" fill="white"/>
</svg>
