<svg width="27" height="27" viewBox="0 0 27 27" fill="none" xmlns="http://www.w3.org/2000/svg">
<g clip-path="url(#clip0)">
<path d="M21.4628 15.9266C21.0073 15.9266 20.5647 15.9823 20.1408 16.0865L10.9144 6.86011C11.0186 6.43629 11.0743 5.99364 11.0743 5.53817C11.0743 2.48501 8.59032 0.00100708 5.53716 0.00100708C4.86939 0.00100708 4.21532 0.119659 3.59306 0.353642C3.34141 0.448247 3.1551 0.664195 3.0983 0.926917C3.04151 1.18964 3.12209 1.46328 3.31214 1.65333L4.90403 3.24517L4.68345 4.68429L3.24427 4.90483L1.65243 3.31299C1.46238 3.12293 1.18863 3.04251 0.926016 3.09915C0.66324 3.15589 0.447293 3.34226 0.352688 3.59385C0.118652 4.21612 0 4.87029 0 5.53817C0 8.59133 2.48395 11.0753 5.53711 11.0753C5.99268 11.0753 6.43539 11.0196 6.85921 10.9154L16.0856 20.1417C15.9814 20.5655 15.9257 21.0083 15.9257 21.4637C15.9257 24.5169 18.4097 27.0008 21.4628 27.0008C22.1307 27.0008 22.7848 26.8822 23.407 26.6482C23.6587 26.5536 23.845 26.3376 23.9017 26.0749C23.9585 25.8121 23.878 25.5385 23.6879 25.3485L22.096 23.7566L22.3165 22.3176L23.7557 22.097L25.3476 23.6889C25.5376 23.8789 25.8112 23.9595 26.074 23.9027C26.3368 23.846 26.5527 23.6596 26.6473 23.408C26.8813 22.7857 26.9999 22.1316 26.9999 21.4638C26.9999 18.4106 24.5161 15.9266 21.4628 15.9266V15.9266Z" fill="white"/>
<path d="M24.5307 6.52445L26.7683 4.28683C26.9167 4.13848 27 3.9373 27 3.72752C27 3.51769 26.9167 3.31651 26.7683 3.16822L23.8318 0.23171C23.5229 -0.0771553 23.022 -0.0771553 22.7131 0.23171L20.4755 2.46928L24.5307 6.52445Z" fill="white"/>
<path d="M2.12531 21.1747L0.0656149 25.8924C-0.0645863 26.1906 0.00112077 26.5381 0.231254 26.7682C0.382707 26.9197 0.585048 26.9999 0.790765 26.9999C0.8975 26.9999 1.00518 26.9783 1.10712 26.9338L5.82479 24.8741L2.12531 21.1747Z" fill="white"/>
<path d="M14.6165 8.32712L19.354 3.58962L23.4085 7.64416L18.671 12.3817L14.6165 8.32712Z" fill="white"/>
<path d="M3.06445 19.8768L8.32321 14.6181L12.3778 18.6726L7.119 23.9314L3.06445 19.8768Z" fill="white"/>
</g>
<defs>
<clipPath id="clip0">
<rect width="27" height="27" fill="white"/>
</clipPath>
</defs>
</svg>
