<svg width="28" height="28" viewBox="0 0 28 28" fill="none" xmlns="http://www.w3.org/2000/svg">
<g clip-path="url(#clip0)">
<path d="M17.5 7.58334C16.856 7.58334 16.3334 7.06067 16.3334 6.41667V4.66667H11.6667V6.41667C11.6667 7.06067 11.144 7.58334 10.5 7.58334C9.85604 7.58334 9.33337 7.06067 9.33337 6.41667V4.66667C9.33337 3.37984 10.3799 2.33334 11.6667 2.33334H16.3334C17.6202 2.33334 18.6667 3.37984 18.6667 4.66667V6.41667C18.6667 7.06067 18.144 7.58334 17.5 7.58334Z" fill="white"/>
<path d="M14.8283 17.9433C14.6183 18.025 14.315 18.0833 14 18.0833C13.685 18.0833 13.3817 18.025 13.1017 17.92L0 13.5567V22.4583C0 24.2317 1.435 25.6667 3.20833 25.6667H24.7917C26.565 25.6667 28 24.2317 28 22.4583V13.5567L14.8283 17.9433Z" fill="white"/>
<path d="M28 9.04167V11.7133L14.28 16.2867C14.1867 16.3217 14.0933 16.3333 14 16.3333C13.9067 16.3333 13.8133 16.3217 13.72 16.2867L0 11.7133V9.04167C0 7.26834 1.435 5.83334 3.20833 5.83334H24.7917C26.565 5.83334 28 7.26834 28 9.04167V9.04167Z" fill="white"/>
</g>
<defs>
<clipPath id="clip0">
<rect width="28" height="28" fill="white"/>
</clipPath>
</defs>
</svg>
